<?xml version="1.0" standalone="no"?>
<!DOCTYPE svg PUBLIC "-//W3C//DTD SVG 20010904//EN"
 "http://www.w3.org/TR/2001/REC-SVG-20010904/DTD/svg10.dtd">
<svg version="1.0" xmlns="http://www.w3.org/2000/svg"
 width="628.000000pt" height="512.000000pt" viewBox="0 0 628.000000 512.000000"
 preserveAspectRatio="xMidYMid meet">

<g transform="translate(0.000000,512.000000) scale(0.100000,-0.100000)"
fill="#000000" stroke="none">
<path d="M4085 4895 c-16 -9 -256 -242 -533 -518 l-502 -502 -483 481 c-439
439 -486 482 -528 493 -85 23 -172 -20 -210 -104 -24 -51 -23 -90 0 -140 13
-27 174 -196 485 -507 256 -257 466 -473 466 -480 0 -15 -550 -568 -565 -568
-6 0 -226 216 -490 480 -263 264 -494 487 -511 495 -104 49 -235 -27 -251
-144 -12 -87 -8 -91 507 -606 264 -264 480 -484 480 -490 0 -13 -522 -535
-535 -535 -5 0 -228 218 -495 484 -445 443 -489 484 -532 496 -79 21 -168 -21
-208 -100 -18 -33 -16 -119 3 -155 8 -17 633 -649 1388 -1406 1196 -1197 1379
-1377 1415 -1387 57 -17 70 -15 155 13 l74 25 1373 1373 c866 865 1378 1384
1388 1406 62 145 -63 292 -214 250 -43 -12 -88 -53 -550 -516 -276 -277 -506
-503 -510 -503 -4 0 -131 123 -281 274 -193 193 -271 278 -265 288 4 7 240
246 523 530 284 284 521 530 528 545 31 71 4 169 -59 216 -41 31 -84 40 -145
32 -48 -7 -52 -11 -578 -536 -292 -291 -535 -529 -540 -529 -15 0 -565 553
-565 567 0 7 223 237 497 510 290 291 502 511 510 530 32 77 3 178 -63 222
-46 32 -135 39 -179 16z m-757 -1813 c147 -147 273 -275 281 -285 13 -17 -8
-41 -265 -298 -153 -153 -285 -279 -294 -279 -20 0 -560 541 -560 561 0 18
544 569 561 569 5 0 130 -120 277 -268z m-821 -844 c150 -150 273 -280 273
-288 0 -8 -119 -134 -265 -280 l-265 -265 -285 285 c-157 157 -285 287 -285
291 0 14 525 529 539 529 9 0 139 -123 288 -272z m1658 6 c146 -147 265 -274
265 -282 0 -18 -528 -550 -554 -558 -15 -5 -77 52 -287 262 -148 148 -269 274
-269 281 0 19 546 563 565 563 8 0 135 -120 280 -266z m-831 -833 c211 -211
267 -272 262 -287 -3 -11 -123 -136 -266 -279 l-261 -259 -274 274 c-151 151
-275 280 -275 286 0 14 519 534 534 534 6 0 132 -121 280 -269z"/>
</g>
</svg>
